<svg width="107" height="37" viewBox="0 0 107 37" fill="none" xmlns="http://www.w3.org/2000/svg">
<path d="M67.1826 14.6259C72.3288 10.7203 77.936 9.12859 84.039 11.4396C87.7152 12.8164 91.3473 14.5389 94.5759 16.7477C100.28 20.6285 102.959 26.5437 104.153 33.1588C104.299 33.9356 103.996 34.7739 104.006 35.6084C104.027 36.0496 104.314 36.5197 104.48 36.9672C104.895 36.7536 105.512 36.682 105.7 36.3427C105.983 35.8337 106.175 35.1412 106.113 34.5882C104.775 25.4065 100.961 17.7792 92.4548 13.1854C88.7473 11.199 84.9619 9.40612 80.7489 8.7821C76.5121 8.17442 72.6068 9.12783 68.9641 11.2338C68.0075 11.7829 67.0836 12.3798 66.4061 12.7731C63.7833 10.8862 61.4093 9.0043 58.8543 7.42153C53.1775 3.83736 47.0165 2.72288 40.4051 4.23018C31.7362 6.16327 23.5937 9.17357 16.7215 15.0661C14.9101 16.6206 14.4676 17.2037 14.3266 18.8426C15.1248 18.472 15.8286 18.271 16.4018 17.8789C18.6707 16.327 20.8579 14.6557 23.1758 13.1754C30.0905 8.83138 37.6786 6.44566 45.7604 5.75554C50.9476 5.2925 55.4444 7.51028 59.6432 10.3175C61.3097 11.4213 62.8102 12.7437 64.4063 14.0008C63.1881 15.5001 62.1347 16.6764 61.2673 17.9708C58.1609 22.6548 58.2292 28.3924 61.3632 32.7693C62.6198 34.504 64.3517 35.0371 66.3062 34.7169C68.2443 34.3728 69.8621 33.4065 70.4556 31.3529C70.7637 30.2657 70.9662 29.0755 70.9526 27.9279C70.9105 23.7149 69.9721 19.7292 67.9215 16.0136C67.6274 15.5837 67.4377 15.1525 67.1826 14.6259ZM65.6666 16.0484C66.335 17.5895 67.1154 19.089 67.6392 20.6238C68.6292 23.5574 69.163 26.5929 68.7189 29.7363C68.4886 31.296 67.5772 32.27 66.0727 32.633C64.528 32.9885 63.3252 32.4089 62.5625 31.0375C62.1277 30.2481 61.6766 29.4349 61.4015 28.5713C59.9529 24.1985 61.8818 18.3568 65.6666 16.0484Z" fill="#FF993C"/>
<path d="M3.80098 22.5715C3.9267 22.3453 3.98077 22.1681 4.09139 22.0223C7.8928 17.7394 10.7152 12.794 13.4408 7.80966C14.3988 6.03258 15.583 4.38121 16.541 2.60413C16.8076 2.07125 16.6782 1.31836 16.7588 0.667315C16.1114 0.899743 15.2215 0.982565 14.8419 1.45258C13.6803 2.98329 12.6407 4.64096 11.7216 6.32127C8.74582 11.8624 5.54377 17.2778 1.22573 21.9842C0.0528753 23.2422 0.448666 24.1283 2.10643 24.5019C10.0006 26.2538 17.8873 28.046 25.8053 29.7816C27.125 30.0709 28.4598 30.2797 29.8021 30.4483C30.1477 30.4924 30.5135 30.2071 30.8655 30.1066C30.6053 29.8288 30.3591 29.3663 30.0448 29.2657C28.0151 28.6558 25.9539 28.1025 23.9015 27.6132C17.3974 25.9972 10.9096 24.4051 4.4055 22.7891C4.2044 22.7513 4.03474 22.657 3.80098 22.5715Z" fill="#FF993C"/>
</svg>
